<?xml version="1.0" encoding="utf-8"?>
<!-- Generator: Adobe Illustrator 24.2.0, SVG Export Plug-In . SVG Version: 6.00 Build 0)  -->
<svg version="1.1" id="Layer_1" xmlns="http://www.w3.org/2000/svg" xmlns:xlink="http://www.w3.org/1999/xlink" x="0px" y="0px"
	 viewBox="0 0 208.9 19.1" style="enable-background:new 0 0 208.9 19.1;" xml:space="preserve">
<style type="text/css">
	.st0{fill:#FFFFFF;}
	.st1{enable-background:new    ;}
</style>
<g id="Group_9" transform="translate(-138.5 -19)">
	<path class="st0" d="M166.5,23.8h-26c-1.1,0-2-0.9-2-2s0.9-2,2-2h26c1.1,0,2,0.9,2,2S167.6,23.8,166.5,23.8z"/>
	<path class="st0" d="M166.5,29.8h-18c-1.1,0-2-0.9-2-2s0.9-2,2-2h18c1.1,0,2,0.9,2,2S167.6,29.8,166.5,29.8z"/>
	<path class="st0" d="M166.5,35.8h-9c-1.1,0-2-0.9-2-2s0.9-2,2-2h9c1.1,0,2,0.9,2,2S167.6,35.8,166.5,35.8z"/>
	<g class="st1">
		<path class="st0" d="M177.9,28.7c0-4.6,3.4-8,8.3-8c2.5,0,4.4,0.9,5.4,2.5l-2.7,2.2c-0.6-1-1.6-1.6-2.9-1.6c-2.6,0-4.3,2-4.3,4.6
			c0,1.8,1.2,3,3.2,3c1.2,0,2.3-0.5,3.2-1.5l2.2,2.2c-1.5,1.8-3.5,2.5-5.8,2.5C180.5,34.5,177.9,32.2,177.9,28.7z"/>
		<path class="st0" d="M203.4,27.3c0,0.4,0,0.8-0.1,1.2l-1.1,5.7h-3.6l1.1-5.4c0.1-0.2,0.1-0.5,0.1-0.7c0-0.9-0.5-1.4-1.4-1.4
			c-1.2,0-2.1,0.7-2.4,2.3l-1,5.1h-3.6l2.8-14.1h3.6l-0.9,4.7c0.9-0.7,2-1,3-1C201.8,23.8,203.4,25,203.4,27.3z"/>
		<path class="st0" d="M216,30h-7.6c0.1,1.1,0.9,1.7,2.3,1.7c0.9,0,1.8-0.3,2.5-0.8l1.5,2.3c-1.3,1-2.8,1.3-4.4,1.3
			c-3.3,0-5.5-1.8-5.5-4.7c0-3.4,2.5-5.9,6.2-5.9c3.1,0,5.1,1.8,5.1,4.5C216.2,28.9,216.1,29.5,216,30z M208.6,28.1h4.2
			c0-1.1-0.8-1.7-1.9-1.7C209.7,26.4,209,27.1,208.6,28.1z"/>
		<path class="st0" d="M216.2,33.4l1.3-2.5c0.9,0.6,2.4,0.9,3.6,0.9c1.2,0,1.7-0.3,1.7-0.7c0-1.2-5.3-0.1-5.3-3.6
			c0-2.5,2.4-3.7,5.5-3.7c1.5,0,2.9,0.3,3.9,0.8l-1.3,2.5c-1-0.6-2.1-0.8-3.1-0.8c-1.2,0-1.7,0.4-1.7,0.8c0,1.2,5.3,0.1,5.3,3.6
			c0,2.5-2.4,3.7-5.5,3.7C218.9,34.4,217.1,34,216.2,33.4z"/>
		<path class="st0" d="M231.8,30.4c0,0.1,0,0.2,0,0.3c0,0.6,0.3,0.9,0.9,0.9c0.4,0,0.7-0.1,1.1-0.3l0.5,2.5
			c-0.8,0.4-1.7,0.6-2.7,0.6c-2.1,0-3.5-1.1-3.5-3c0-0.3,0-0.6,0.1-1l0.7-3.4h-1.5l0.6-2.7h1.5l0.5-2.7h3.6l-0.5,2.7h2.3l-0.5,2.7
			h-2.3L231.8,30.4z"/>
		<path class="st0" d="M246.7,30h-7.6c0.1,1.1,0.9,1.7,2.3,1.7c0.9,0,1.8-0.3,2.5-0.8l1.5,2.3c-1.3,1-2.8,1.3-4.4,1.3
			c-3.3,0-5.5-1.8-5.5-4.7c0-3.4,2.5-5.9,6.2-5.9c3.1,0,5.1,1.8,5.1,4.5C246.9,28.9,246.8,29.5,246.7,30z M239.3,28.1h4.2
			c0-1.1-0.8-1.7-1.9-1.7C240.4,26.4,239.7,27.1,239.3,28.1z"/>
		<path class="st0" d="M256.3,23.8l-0.6,3.2c-0.3,0-0.5-0.1-0.8-0.1c-1.6,0-2.6,0.7-2.9,2.4l-1,4.9h-3.6l2.1-10.3h3.4l-0.2,1.1
			C253.5,24.2,254.8,23.8,256.3,23.8z"/>
		<path class="st0" d="M271.5,30.3l2.3,4h-3.9l-2-3.5h-1.9l-0.7,3.5h-3.8l2.7-13.3h5.7c3.4,0,5.4,1.6,5.4,4.2
			C275.2,27.7,273.8,29.5,271.5,30.3z M269.3,23.9h-2l-0.8,3.9h2.2c1.7,0,2.6-0.8,2.6-2.3C271.4,24.5,270.6,23.9,269.3,23.9z"/>
		<path class="st0" d="M288.2,24l-2.1,10.3h-3.4l0.2-1.1c-0.9,0.9-2.1,1.2-3.2,1.2c-2.2,0-3.7-1.2-3.7-3.5c0-0.4,0-0.8,0.1-1.3
			l1.1-5.7h3.6l-1.1,5.3c-0.1,0.3-0.1,0.5-0.1,0.7c0,0.9,0.5,1.3,1.4,1.3c1.2,0,2.1-0.7,2.4-2.3l1-5.1H288.2z"/>
		<path class="st0" d="M300.7,27.3c0,0.4,0,0.8-0.1,1.3l-1.1,5.7h-3.6l1.1-5.4c0.1-0.2,0.1-0.5,0.1-0.7c0-0.9-0.5-1.4-1.4-1.4
			c-1.2,0-2.1,0.7-2.4,2.3l-1,5.1h-3.6l2.1-10.3h3.4l-0.2,1.1c0.9-0.9,2.1-1.2,3.2-1.2C299.2,23.8,300.7,25,300.7,27.3z"/>
		<path class="st0" d="M313.9,27.3c0,0.4,0,0.8-0.1,1.3l-1.1,5.7h-3.6l1.1-5.4c0.1-0.2,0.1-0.5,0.1-0.7c0-0.9-0.5-1.4-1.4-1.4
			c-1.2,0-2.1,0.7-2.4,2.3l-1,5.1h-3.6l2.1-10.3h3.4L307,25c0.9-0.9,2.1-1.2,3.2-1.2C312.4,23.8,313.9,25,313.9,27.3z"/>
		<path class="st0" d="M317,24h3.6l-2.1,10.3H315L317,24z M317.2,21.1c0-1.2,0.9-2.1,2.3-2.1c1.3,0,2.1,0.7,2.1,1.7
			c0,1.2-0.9,2.1-2.3,2.1C318,22.8,317.2,22,317.2,21.1z"/>
		<path class="st0" d="M333.1,27.3c0,0.4,0,0.8-0.1,1.3l-1.1,5.7h-3.6l1.1-5.4c0.1-0.2,0.1-0.5,0.1-0.7c0-0.9-0.5-1.4-1.4-1.4
			c-1.2,0-2.1,0.7-2.4,2.3l-1,5.1h-3.6l2.1-10.3h3.4l-0.2,1.1c0.9-0.9,2.1-1.2,3.2-1.2C331.6,23.8,333.1,25,333.1,27.3z"/>
		<path class="st0" d="M347.4,24l-1.7,8.4c-0.8,4.1-3.2,5.8-6.8,5.8c-2.1,0-3.8-0.5-5-1.3l1.6-2.5c0.8,0.6,2.1,1.1,3.5,1.1
			c1.9,0,2.7-0.8,3-2.3l0.1-0.3c-0.8,0.7-1.7,1-2.9,1c-2.4,0-4.5-1.6-4.5-4.4c0-3.1,2.4-5.5,5.6-5.5c1.5,0,2.7,0.5,3.3,1.8l0.3-1.6
			H347.4z M342.7,28.4c0-1-0.7-1.7-1.9-1.7c-1.4,0-2.5,1-2.5,2.5c0,1,0.7,1.7,1.9,1.7C341.7,30.9,342.7,29.9,342.7,28.4z"/>
	</g>
</g>
</svg>
