<?xml version="1.0" encoding="utf-8"?>
<!-- Generator: Adobe Illustrator 24.2.0, SVG Export Plug-In . SVG Version: 6.00 Build 0)  -->
<svg version="1.1" id="Layer_1" xmlns="http://www.w3.org/2000/svg" xmlns:xlink="http://www.w3.org/1999/xlink" x="0px" y="0px"
	 viewBox="0 0 512 512" style="enable-background:new 0 0 512 512;" xml:space="preserve">
<style type="text/css">
	.st0{fill:#1965A8;}
</style>
<g>
	<path class="st0" d="M477.9,184H34.1C15.4,184,0,167.8,0,148.1s15.4-36,34.1-36h443.7c18.8,0,34.1,16.2,34.1,36
		S496.6,184,477.9,184z"/>
	<path class="st0" d="M477.9,292H170.7c-18.8,0-34.1-16.2-34.1-36s15.4-36,34.1-36h307.2c18.8,0,34.1,16.2,34.1,36
		S496.6,292,477.9,292z"/>
	<path class="st0" d="M477.9,399.9H324.3c-18.8,0-34.1-16.2-34.1-36s15.4-36,34.1-36h153.6c18.8,0,34.1,16.2,34.1,36
		S496.6,399.9,477.9,399.9z"/>
</g>
</svg>
