<svg xmlns="http://www.w3.org/2000/svg" width="382.449" height="661.034" viewBox="0 0 382.449 661.034">
  <g id="Group_8" data-name="Group 8" transform="translate(-425.953 -165.953)">
    <g id="Group_7" data-name="Group 7" transform="translate(425.953 165.953)">
      <path id="Path_3" data-name="Path 3" d="M2128.62,220.532l-3.31,17.832-16.392,2.718v-19.7l4.562-4.585Z" transform="translate(-2017.952 -204.335)" fill="#1e65a8"/>
      <path id="Path_4" data-name="Path 4" d="M2085.845,327.919l-5.436,15.109,3.4,8.494,8.151-4.051-2.379-3.591-3.312-12.036Z" transform="translate(-1996.432 -288.22)" fill="#fff" fill-rule="evenodd"/>
      <path id="Path_5" data-name="Path 5" d="M1786.511,669.906c-6.511,11.821-.072,27.814-.072,27.814s-1.512,11.16,2.986,27c-12.347,17.295-22.329,25.494-31.308,29.686-5.938-.789-10.739,1.612-15.985,1.771-1.123,1.751-4.331,8.736-4.331,8.736l1.632,2.961.1,3.5,6.775,9.007c.955.748,8.852,1.441,8.852,1.441a21.337,21.337,0,0,1,3.12-3.821,2.448,2.448,0,0,0-.963-2.814,23.71,23.71,0,0,0,6.057-6.635c2.229-.565,42.907-15.9,47.19-20.721C1804.76,733.316,1801.441,694.858,1786.511,669.906Z" transform="translate(-1737.8 -546.382)" fill="#2d2d2d"/>
      <path id="Path_6" data-name="Path 6" d="M2297.847,1633l-33.49,7.621,6.623,49.424,12.739,11.383,27-17.623,5.286-14.972-.657-14.068-11.718,2.191,1.087-25.375Z" transform="translate(-2135.293 -1272.343)" fill="#1e65a8"/>
      <path id="Path_7" data-name="Path 7" d="M2358.284,1643.352s-1.06,22.694-.1,39.367a15.192,15.192,0,0,1-5.556,2.913,33.82,33.82,0,0,1-.287,18.772l10.532-6.891s6.2-7.287,10.475-22.829c0,0-5.221,2.293-4.7.342,3.3-5.2,2.02-7.646,1.607-34.6C2363.125,1641.95,2358.284,1643.352,2358.284,1643.352Z" transform="translate(-2201.708 -1279.014)" fill="#fff" fill-rule="evenodd"/>
      <path id="Path_8" data-name="Path 8" d="M2011.694,1638.147l3.319,16.411-1.87,11.188,3.057,8.491,3.392,22.753s-22.417,50.183-27,88.647l-12.992-1.529,2.8-93.233,8.533-108.644,34.009,5.333Z" transform="translate(-1920.331 -1235.088)" fill="#1e65a8"/>
      <path id="Path_9" data-name="Path 9" d="M2046.844,1877.3a45.373,45.373,0,0,0,2.206,11.188c3.16,9.188,7.251,19.1,6.384,25.472-1.991,14.719-12.673,32.608-28.411,92.76-.431-1.795-5.97,5.075-5.183-2.048,3.844-34.946,11.034-70.932,11.034-70.932s1.822,13.925,2.626,21.656c0,0,11.558-33.427,11.678-45.177.063-6.354-3.527-19.717-3.527-19.717s-5.3,1.136-8.367,0C2041.4,1886.922,2046.844,1877.3,2046.844,1877.3Z" transform="translate(-1952.161 -1457.834)" fill="#fff" fill-rule="evenodd"/>
      <path id="Path_10" data-name="Path 10" d="M2072.075,1591.053c-.015.87-2.482,24.776-2.1,40.507,4.522-5.8,9.552-14.06,9.552-14.06-.327,12.48-4.991,23.792-6.766,29.9a35.737,35.737,0,0,1-7.754-4.509,27.447,27.447,0,0,0,4.076,16.559c10.188-8.216,16.088-29.529,20.361-49.44C2095.616,1603.175,2094.641,1593.5,2072.075,1591.053Z" transform="translate(-1984.725 -1241.746)" fill="#fff" fill-rule="evenodd"/>
      <path id="Path_11" data-name="Path 11" d="M2441.752,1709.1c2.459-1.87,7.387-24.112.342-26.494,0-1.554-4.084-2.2-5.183-2.968-2.612-1.841-1.822-2.149,0-6.46,2.588-6.114,6.622-4.5,10.038-4.585,11.017,5.214,7.794,19.874,8.119,24.586s7.929,2.271,7.15,16.3c-1.362,24.5-12.442,23.842-17.22,22.035C2438.273,1728.972,2441.752,1709.1,2441.752,1709.1Z" transform="translate(-2264.287 -1300.184)" fill="#fff" fill-rule="evenodd"/>
      <g id="Group_1" data-name="Group 1" transform="translate(23.193 269.831)">
        <path id="Path_12" data-name="Path 12" d="M1931.718,1540.387c-1.043-31.923,1.107-87.5,1.107-87.5a197.485,197.485,0,0,1,6.033,20.11c4.243-21.342,6.171-52.278,6.171-52.278-4.777-10.133-6.737-19.422-4.9-22.639a64,64,0,0,1,4.25-5.945s-.842-21.537.511-44.328c10.57-.38,21.087,2.466,25,5.032,5.349,3.5,3.039,12.4,3.039,12.4,6.068-.743,5.708-6.076,7.237-12.7,5.39,3.935,5.964,10.547,5.964,10.547,3.566,2.495,4.783,2.677,4.783,2.677,1.1,25.611,6.973,32.35,6.5,51.594l11.917,13.156a41.433,41.433,0,0,0,12.991,1.1c4.214-2.542,12.556-9.778,17.613-14.283,2.339,4.133,2.324,10.627,4.908,14.224,4.074,5.67,11.716,2.833,15.919-2.474,7.349-9.276,5.43-26.451,5.43-26.451s-1.672,12.05-9.481,18.547a42.725,42.725,0,0,0,1.784-12.569c-5.717,6.709-11.6,6.071-11.6,6.071a27.374,27.374,0,0,0,5.907-10.622l-2.955-2c3.192-8.123,5.082-17.961.847-22.255a12.9,12.9,0,0,1,5.42.523c-1.439-6.954-9.807-11.755-9.807-11.755a11.761,11.761,0,0,1,11.583,4.721c-3.817-10.264-12.772-9.715-17.078-7.651.2-2.461.374-5.185.477-7.9,4.626-2.972,8.352-6.912,9.9-12.223a52.639,52.639,0,0,1-7.809-3.821l3.31-4.839c-1.974-18.15.893-46.533-17.965-67.863-31.964,2.484-71.1,2.488-98.186-2.189a66.684,66.684,0,0,0-6.035,20.748c4.164,6.01,2.158,14.839,2.158,14.839s-10.166,29.681-8.263,45.379c.143,1.195,2.857,4.619,2.953,5.809,1.425,18.252,6.289,26.562,8.677,37.058-3.064,11.991.582,20.11.422,22.424,0,0-3.311,14.87-5.779,22.04-5.171,15.01,1.286,76.036-.657,113.807-3.065.334-5.677,2.073-6.007,6.068a14.128,14.128,0,0,0-7.458,7.068s12.371-4.556,21.971-2.521a16.112,16.112,0,0,0-7.921-5.438,24.163,24.163,0,0,1,8.851-2.4,22.093,22.093,0,0,0-4.35-2.158c5.632-1.039,13.967-1.195,20.462,2.926C1945.37,1542.266,1931.718,1540.387,1931.718,1540.387ZM2007.78,1412.2a44.186,44.186,0,0,1,4.014-9.567s-3.56-25.337-3.821-36.095c0,0,13.814-.312,25.966-5.1-.473,10.07-1.563,30.108-3.176,41.2a44.4,44.4,0,0,0,9.082-9.985l-1.178-5.443c2.548-2.808,7.15-3.353,8.208.029,2.453,7.794-7.03,20.786-17.5,28.242a24.553,24.553,0,0,0-2.548-4.37,44.5,44.5,0,0,1-7.984,11.261C2013.408,1419.567,2007.78,1412.2,2007.78,1412.2Z" transform="translate(-1891.401 -1266.808)" fill="#2d2d2d" fill-rule="evenodd"/>
        <path id="Path_13" data-name="Path 13" d="M1845.276,2462.818c5.485.671,1.074,5.907,11.719,13.566,17.617,12.675,30.106,14.739,29.971,18.125-.222,5.767-13.126,5.772-17.871,3.965-6.2-2.365-3.352-5.21-8.144-6.455-10.182-2.635-29.064-3.349-28.515-14.077C1832.833,2470.279,1841.439,2462.35,1845.276,2462.818Z" transform="translate(-1832.423 -2169.648)" fill="#2d2d2d" fill-rule="evenodd"/>
        <path id="Path_14" data-name="Path 14" d="M1973.62,2462.476s11.368-.941,15.261-2.334c0,0-.382-4.72-4.235-12.024,0,0,11.081,1.49,11.82,6.7.709,4.97-4.418,7.778-2.371,15.8C1994.1,2470.616,1980.458,2466.306,1973.62,2462.476Z" transform="translate(-1939.011 -2158.566)" fill="#2d2d2d" fill-rule="evenodd"/>
      </g>
      <g id="Group_2" data-name="Group 2" transform="translate(67.507 288.538)">
        <path id="Path_15" data-name="Path 15" d="M2053.42,1493.1s-9.217-11.564-40.207-8.765c0,0,10.587-3.563,28.02-3.821a52.714,52.714,0,0,0-5.349-7.131,30.56,30.56,0,0,1,7.228-1.942c-4.091-8.247-13.087-15.125-13.087-15.125,14.01,4.5,20.9,11.926,23.236,18.292C2055.649,1481.114,2053.42,1493.1,2053.42,1493.1Z" transform="translate(-2013.213 -1428.569)" fill="#fff" fill-rule="evenodd"/>
        <path id="Path_16" data-name="Path 16" d="M2259.952,1415.25s23.88,2.677,37.986-9.5c0,0-5.562-2.677-8.286-4.459a71.792,71.792,0,0,0,7.053-8.752s-.152-37.036-9.378-49.408a148.873,148.873,0,0,1,.486,15.046s-5.573-.382-20.323-1.211c0,0,15.716,11.121,24.328,26.748a134.753,134.753,0,0,1-16.464,5.6c3.821,3.846,7.969,8.727,7.969,8.727s-16.75,1.334-32.9-3.884c13.333,10.188,29.525,13.308,29.525,13.308A59.939,59.939,0,0,1,2259.952,1415.25Z" transform="translate(-2192.281 -1343.128)" fill="#fff" fill-rule="evenodd"/>
      </g>
      <path id="Path_17" data-name="Path 17" d="M2375.04,670.92c9.951-7.386,24.511-46.823,27-52.134,3.066-6.543,4.529-24.828,4.529-24.828,5.875-11.249,19.288-22.031,42.645-25.362l0,.019a27,27,0,0,1,7.79-4.1s-4.936,15.3-5.55,20.148c-.509,4.06-.589,19.3,22.816,17.851,39.905-2.479,32.487-33.6,32.016-45.53l12.546,6.154c10.532,5.318,22.544,7.081,33.8,15.078,14.473,10.285,17.514,25.577,20.7,33.689,4.21,10.706,12.243,17.462,27.957,43.253-.382,23.893-14.52,45.625-19.941,55.465,0,.016-2.345,23.388-6,26.863,0,0-2.763,1.572-6.377,3.426,0,0-3.407,4.459-5.43,6.934-2.333,2.859-4.418,1.831-4.418,1.831l-.083-17.7s7.423-20.654,8.029-21.709c14.057-24.482,13.914-44.838,13.755-45.187-.422-.988-23.142-36.658-35.943-41.587a21.388,21.388,0,0,1,.448,4.562c-.606,24.081-21.909,52.181-19.2,77.089,2.81,25.881,21.677,36.237,27.026,62.682-8.668,3.65-46.724,2.456-58.727,7.71-52.564,23.012-61.422,8.927-61.422,8.927,15.525,6.6,51.7-35.663,78.365-45.016,0,0-17.5,0-43.861,10.292,0,0,8.406-11.73,13.118-18.631a207.631,207.631,0,0,0-21.389-1.568s24.056-27.683,42.661-36.654a128.539,128.539,0,0,0-26.994,3.567s3.43-12.642,11.5-22.891a155.785,155.785,0,0,0-33.483,10.6,95.639,95.639,0,0,1,22.035-17.624c-7.45-2.308-17.959-2.444-17.959-2.444.932-10.061,29.183-7.972,38.164-7.562,13.69.621,27.239-3.678,31.332-26.349-12.316,13.644-28.459,5.35-62.515,6.631a61.259,61.259,0,0,0-17.135,2.731,39.043,39.043,0,0,0,7.256,1.412c-.446,2.166-.319,7.754-8.5,6.194-12.056,8.744-15.793,14.01-15.793,14.01-14.138,8.53-34.294,19.352-43.815,23.265Z" transform="translate(-2218.846 -461.136)" fill="#fff" fill-rule="evenodd"/>
      <path id="Path_18" data-name="Path 18" d="M2051.592,368.056c-3.289-8.474-8.949-11.387-10.764-19.109-2.348-9.991-5.985-16.685-11.908-20.4-.781-2.077-6.536-8.792-43.163-14.949l2.149-23.755,5.86-14.52-5.478-23.9-13.937-9.936-8.1.972a76.622,76.622,0,0,0-.574,12.927,42.629,42.629,0,0,0-9.234,2.934c-2.292,9.15,5.795,14.834,5.795,14.834s4.2,2.165,13.437,1.655c.169,8.152-5.26,21.676-5.26,21.676a48.072,48.072,0,0,0,13.667-5.181,63.471,63.471,0,0,1-8.35,17.859,43.42,43.42,0,0,0,6.735.545,27.625,27.625,0,0,1-.98,8.486c-14.049,12.76-37.634,13.207-37.478,3.722-25.139,15.033-35.186,24.578-35.186,24.578-.4,9.7,5.206,15.288,5.461,24.969.613,23.419,7.28,28.395,10.22,38.142a43.868,43.868,0,0,0-12.266.645s4.808,2.694,6.416,4.489a161.157,161.157,0,0,0-18.827,6.19,65.613,65.613,0,0,1,26.286,4.075c.111,11.547-1.055,23.973-1.895,37.072a51.258,51.258,0,0,0,5.222,9.183c-7.579,7.881-7,21.541-7,21.541,16.041,16.558,79.6,10.317,98.186,2.189,4.91-4.036,9.989-11.519,9.989-11.519a28.6,28.6,0,0,1-5.78-8.056c-2.546,3.5-11.335,7.96-11.335,7.96,5.985-8.227,11.081-25.347,11.081-25.347-3.169-13.736-5.174-22.767,1.273-34.76-1.911-19.372,2.157-30.827,3.146-35.858C2029.008,387.42,2052.7,370.9,2051.592,368.056Zm-31.3,67.211c-14.805,7.233-38.751,7.359-38.751,7.359s3.669,5.637,6.375,7.85c-24.081,1.322-41.617-3.411-41.617-3.411,21.461,23.2,43.52,31.862,43.52,31.862a91.822,91.822,0,0,1-36.935-4.664c12.552,15.235,25.282,19.542,25.282,19.542s-23.5,3.845-47.317-4.716A62.437,62.437,0,0,0,1946,481.6s-12.1-11.766-17.26-23.373c0,0,8.6,4.992,14.712,6.942-7.389-15.412-11.248-33.419-11.248-33.419l7.984-5.341c-6.3-13.47-11.176-35.205-11.176-35.205,12.472,1.245,20.427,0,20.427,0-21.4-17.614-34.224-43.087-34.224-43.087a51.249,51.249,0,0,0,13.588.382c5.352-7.77,10.954-15.165,10.954-15.165,13.629,15.8,45.989-6.356,45.989-6.356s12.219,4.836,18.97,9.978a104.221,104.221,0,0,0-12.65,14.05,45.476,45.476,0,0,0,8.86,10.293,88.172,88.172,0,0,1-26.017-.955,106.173,106.173,0,0,0,15.031,17.577c-16.979-3.65-41.523-16.471-41.523-16.471,34.3,39.313,68.181,47.978,68.181,47.978-8.326.431-16.979,0-16.979,0a210.64,210.64,0,0,0-19.478-8.267c-4.617,1.728-2.175,5-2.175,5l6.5,22.838,19.616,3.758,16.206-4.482Z" transform="translate(-1860.115 -222.979)" fill="#fff"/>
      <path id="Path_19" data-name="Path 19" d="M2722.156,1601.106s-4.211-20.866-3.217-28.178c.6-4.416,11.463-53.5,11.463-53.5l9.3-64.32s62.194-15.423,59.353,7.132c-4.488,35.709-50.429,97.96-47.587,118.919,1.174,8.685,2.631,17.948,3.944,25.839,12.622-4.935,31.672-7.73,31.672-7.73-6.536-2.981-16.39-3.487-16.39-3.487,17.105-5.312,24.708-6.194,24.708-6.194,5.438,2.8,8.271,14.144,6.4,21.74-.811,3.31-7.936,1.38-9.027,0-3.348-4.239-27.047.528-36.2,2.558,1.294,7.545,2.237,12.679,2.237,12.679l-4.036,17.956c-.755,6.992-14.155,34.478-18.206,51.459-5.835,24.429-6.648,36.378-9.974,46.034-2.453-1.621-12.744,0-12.744,0C2721.151,1672.895,2722.156,1601.106,2722.156,1601.106Z" transform="translate(-2474.606 -1135.239)" fill="#1e65a8" fill-rule="evenodd"/>
      <path id="Path_20" data-name="Path 20" d="M2823.791,1485.51a204.621,204.621,0,0,1-15.65,54.741,266.462,266.462,0,0,0,.868-33.963c-10.865,49.952-29.47,92.92-29.47,92.92a50.424,50.424,0,0,1-5.6-.7c4.792,11.264-1.606,27.6-1.606,27.6a17.306,17.306,0,0,0,6.709-.832s7.046,11.248,7.42,17.556c.787,13.625-8.748,44.353-8.748,44.353l-5.048-19.008c-3.407,41.525-15.132,86.773-16.838,99.7,0,0,4.444,1.052,4.53,3.686a63.458,63.458,0,0,1-.811,7.047c7.809-5.95,3.557-13.478,3.557-13.478,6.846-42.989,22.323-76.3,28.068-96.065,10.875-37.332-9.687-64.3.931-82.036s22.848-35.736,32.162-59.519C2827.53,1520.267,2845.651,1490.732,2823.791,1485.51Z" transform="translate(-2506.302 -1162.073)" fill="#fff" fill-rule="evenodd"/>
      <path id="Path_21" data-name="Path 21" d="M2603.4,1425.477a46.6,46.6,0,0,1-4.393-13.946s2.166-8.471,3.071-14.076c14.02,10.192,61.464-27.423,81.5-28.442,0,0-6.878,7.152-10.19,12.82,25.093-14.011,45.6-9.024,48.837-1.015,2.365,29.628-11.813,52.469-16.342,58.743,1.6-4.843,7.471-17.585,6.276-28.795a19.038,19.038,0,0,0-1.2-5.3c-.093-.245-.192-.486-.292-.731-.194-.452-.409-.895-.637-1.326a17.721,17.721,0,0,0-2.924-4.172c-11.7-12.865-40.465-12.685-53.46,17.746a35.051,35.051,0,0,1,22.615-12.975c-3.084,9.454-12.233,38.671-22.487,82.606,0,0-5.35-5.56-6.878-8.913-1.68,11.792-3.312,31.657-3.312,31.657s-5.542,5.7-6.139,10.116c-.995,7.313,5.518,20.528,5.518,20.528l-4.617,13.608a1140.6,1140.6,0,0,1-5.745,120.043c.6.1,1.2.211,1.786.351,10.669,2.571,8.989,9.643,8.049,13.071,0,0,6.8-4.6,3.416-9.644,7.036,1.161,6.136,10.365,5.013,15.7-1.71,8.153,2.333,10.416.414,15.348-1.3,3.357-5.189,6.595-5.189,6.595-2.125-2.639-6.354-3.656-6.354-3.656s5.128,8.964,2.611,14.6c-1.8,4.015-6.383,7.933-14.957,8.866-13.23,1.448-23.509-2.968-25.673-6.469s3.908-8.883,7.475-7.95c5.89,1.537,4.346,9.855,17.075,9.559,6.648-.148,11.423-3.622,13.318-6.536-6.63,3.335-16.542,3.39-20.49-3.15a48.621,48.621,0,0,0,8.239-9.664s-6.36-4.59-13.152-1.592a21.415,21.415,0,0,1-6.878,6.523c.907-1.664,2.5-6.038,2.5-6.038-1.933-8.867,19.2-8.55,23.237-2.778-2.037-8.592-13.477-9.31-18.525-6.029-1.606-8.271,16.361-7.921,21.478-2.462.31-3.289-5.287-9.977-16.549-6.924,0,0,2.046-3.512-.048-9.508-1.828-5.2,1.973-7.777,7.009-8.377,1.6-31.894.646-58.265-.8-91.037-.5-11.535,3.4-24.429,5.294-34.064-11.153-23.015-29.128-45.9-28.2-110.877a29.81,29.81,0,0,1-2.8-6.493A18.609,18.609,0,0,0,2603.4,1425.477Z" transform="translate(-2387.914 -1074.131)" fill="#2d2d2d"/>
      <path id="Path_22" data-name="Path 22" d="M2666.99,1667.188s-2.4,21.444-2.453,54.178c0,0-5.508-23.719-8.28-47.042a74.739,74.739,0,0,0-6.766,12.3s-5.628-9.664-8.725-25.083A150.017,150.017,0,0,0,2666.99,1667.188Z" transform="translate(-2419.439 -1294.955)" fill="#1e65a8" fill-rule="evenodd"/>
      <path id="Path_23" data-name="Path 23" d="M2977.63,1961.524c1.823-2.006,5.74-3.889,9.5-2.318,3.336,1.394,5.2,7.135,7.3,1.959,1.824-4.467-.23-15.212-8.5-21.309-7.49-5.519-9.751-3.488-9.751-3.488-.255-1.672-.032-2.993,3.588-7.3,2.359-2.8,1.7-7.127,5.582-10.619,5.094-4.581,17.243-.933,19.519,11.391,1.973,10.665.095,19.628,7.826,28.689,10.42,12.21,7.984,30.741,1.7,35.913-4.055,3.34-8.5-.076-12.732-5.156,2.187,1.419,4.442,2.285,6.029,1.427,1.552-.844,3.884-6.912.08-14.519-1.195,7-6.985,7.6-10.521,7.279-1.178-1.651-2.312-3.284-3.4-4.788,9.2-.473,10.672-6.093,10.672-9.9a10.076,10.076,0,0,1-10.38,5.535c5.954-2.576,6.24-9.614,6.24-9.614-3.16,6.561-11.526,7.578-13.643,6.561l0,0a5.83,5.83,0,0,0-6.865.317C2975.09,1974.832,2973.993,1965.535,2977.63,1961.524Z" transform="translate(-2672.104 -1487.458)" fill="#2d2d2d" fill-rule="evenodd"/>
      <g id="Group_3" data-name="Group 3" transform="translate(103.933 58.566)">
        <path id="Path_24" data-name="Path 24" d="M2308.2,716.149a175.075,175.075,0,0,0-28.158,9.172,81.3,81.3,0,0,1,9.069-20.531c-7.9.255-14.784,1-14.784,1,24.288-19.925,59.881-19.925,59.881-19.925-24.982-7.619-52.239-.5-52.239-.5a55.339,55.339,0,0,1,5.646-7.137c4.91-.673,6.016-3.239,5.531-7.937-.446,2.166-.837,4.8-9.019,3.245a4.162,4.162,0,0,0-.373-3.726,88.972,88.972,0,0,1-12.738,1.027l-11.621,6.114s-11.894,16.363-13.764,19.332a50.756,50.756,0,0,1-15.809,10.5,48.576,48.576,0,0,0,6.234-8.32c-6.815-1.21-19.123,1.784-19.123,1.784,9.952-7.388,29.215-10.246,29.215-10.246,4.606-7.355,8.712-17.007,11.6-24.574-1.954-18.23,12.173-39.675,20.1-52.145a126.165,126.165,0,0,0-22.628,23.6,125.008,125.008,0,0,1,3.979-20.987,27.043,27.043,0,0,0-13.392,7.2,54.483,54.483,0,0,0-6.293,14.934c-.543,2.058-1.128,4.052-1.74,6.027-12.434-6.338-16.73-15.117-14.389-17.8,1.307-1.5,5.6-.767,10.373,1.334-2.166-4.841-9.33-10-12.482-16.176-3.256-6.4-2.071-14.07,5.413-15.365-23.436-4.585-29.232,70.391-5.916,52.548l6,6.32c1.484,1.337,3.35,2.89,5.368,4.387-4.019,9.6-8.995,19.75-15.172,32.984-3.42-.346-7.328-1.106-10.281-1.512,1.845,7.709-5.694,8.287-11.71,7.3a15.991,15.991,0,0,0,2.347-2.408c-3.183-.064-8.151-1.043-9.616-3.567a17.212,17.212,0,0,1-.233-3.43c-.023-2.174-1.853-3.006-1.839-3.766a16.738,16.738,0,0,0-.5-4.522c-.58-1.281-1.99-1.042-2.6-2.26-.407-.8.19-3.638-.414-4.466-1.155-1.568-3.5-.517-3.392-2.254.255-3.948-1.606-2.961-7.435-2.981-1.672-3.451-4.76-5.811-7.76-8.271-4.737,2.528,1.44,7.686,4.927,11.762-1.9,1.146-4.227,2.173-5.31,3.256s-1.051,2.985.1,5.214a20.053,20.053,0,0,0-.1,5.477c.294,1.656,3.032,3.623,3.193,4.076.35,1,.54,3.267,1.209,4.307s4.154,2.213,4.427,2.826c1.678,3.773,2.945,4.259,7.436,3.551,3.413-.546,5.53-2,7.72-1.258,6.5,2.213,12.991,5.731,21.463,1.21,2.236-1.194,3.61-2.264,5.13-3.005-.967,1.636-2.018,3.491-2.966,5.334l1.767,6.453.287,9.377,8.622,9.689s19.056-6.552,38.146-29.777l4.258-2.663c14.887,47.962,19.568,65.109,8.6,103.049a133.28,133.28,0,0,1,32.7-33.5,79.624,79.624,0,0,0-22.673,8.367s1.807-5.824,7.771-21.359c-2.292-2.165-8.167-5.433-8.167-5.433S2290.1,728.038,2308.2,716.149Zm-59.608-59.9c4.846,2.2-14.123,27.377-23.969,33.426C2232.268,677.64,2240.441,652.556,2248.594,656.25Zm10.062,38.549s4.9-6.865,6.17-13.345C2270.176,687.058,2258.656,694.8,2258.656,694.8Z" transform="translate(-2161.823 -549.038)" fill="#2d2d2d"/>
        <path id="Path_25" data-name="Path 25" d="M2863.136,479.868c0-.1.19-.159.3-.246a4.118,4.118,0,0,1-.232.879A2.843,2.843,0,0,1,2863.136,479.868Z" transform="translate(-2691.235 -461.305)" fill="#2d2d2d"/>
        <path id="Path_26" data-name="Path 26" d="M2650.524,836.814c1.119-.928,3-2.488,4.621-3.9,3.078,1.329,2.426,4.907,2.039,6.862A60.447,60.447,0,0,1,2650.524,836.814Z" transform="translate(-2530.738 -727.998)" fill="#2d2d2d"/>
        <path id="Path_27" data-name="Path 27" d="M2582.334,809.273l-1.3,3.406c-3.705.769-6.749,1.668-8.159,2.114l3.92-7.941s7.849-4.956,13.948-6.942c0,0,.827,1.784-1.02,3.822Z" transform="translate(-2472.12 -703.087)" fill="#2d2d2d"/>
        <path id="Path_28" data-name="Path 28" d="M2600.207,873.9a36.869,36.869,0,0,1-11.176-4.426l-13.867,2.121s2.4-2.918,5.269-3.713c4.84-1.337,11.911-1.211,11.911-1.211s3.565,1.4,8.151,2.659a6.954,6.954,0,0,0,7.578-2.165C2608.312,874.714,2602.05,874.213,2600.207,873.9Z" transform="translate(-2473.85 -753.484)" fill="#2d2d2d"/>
        <path id="Path_29" data-name="Path 29" d="M2910.585,430.5c.247,1.082.4,2.6-.454,2.985-1.529.668-1.161-1.421-1.98-1.978-.033-.9-.749-2.106.167-2.639C2909.861,427.96,2909.528,430.344,2910.585,430.5Z" transform="translate(-2724.994 -422.837)" fill="#2d2d2d"/>
        <path id="Path_30" data-name="Path 30" d="M2934.656,404.915v-.008a.074.074,0,0,0,.015-.016Z" transform="translate(-2745.227 -404.891)" fill="#2d2d2d"/>
      </g>
      <path id="Path_31" data-name="Path 31" d="M2786.142,419.863" transform="translate(-2529.182 -357.627)" fill="#2d2d2d"/>
      <g id="Group_4" data-name="Group 4" transform="translate(232.966 9.014)">
        <path id="Path_32" data-name="Path 32" d="M2688.267,243.062s.087-1.094,1.83-5.052c1.322-3.012,5.637-5.91,5.637-5.91,1.4-9.617,7.832-25.924,7.832-25.924,26.749-10.694,42.781,6.9,42.781,6.9,3.524,5.851,6.1,15.881,1.749,30.3,0,.007.008.023.012.032,2.649,2.85-1.043,13.612-3.3,20.283-1,2.966-4,11.7-4,11.7s-3.87,19.189-9.386,30.907c.19-17.991,1.8-21.438,2.229-33.028-2.5,3.24-23.141,14.305-32.265,1.54C2699.188,274.681,2687.765,246.095,2688.267,243.062Z" transform="translate(-2688.251 -202.728)" fill="#fff"/>
      </g>
      <path id="Path_33" data-name="Path 33" d="M2700.755,649.97a65.939,65.939,0,0,1,16.415,11.436s8.866-8.574,27.678-13.589c0,0-16.43,1.106-24.072,2.507,0,0-4.967-4.458-17.2-9.679,0,0,5.684,5.035,7.053,8.621A56,56,0,0,0,2700.755,649.97Z" transform="translate(-2464.724 -524.293)" fill="#fff"/>
      <path id="Path_34" data-name="Path 34" d="M2782.307,303.044a16.1,16.1,0,0,1,2.312-4.828,18.984,18.984,0,0,1-2.069-3.682c5.509-1.6,13.589.478,15.806,3.746,0,0-4.319-.808-6.891-.164,0,0,7.476,2.336,6.688,6.99A57.928,57.928,0,0,0,2782.307,303.044Z" transform="translate(-2526.287 -262.601)" fill="#2d2d2d" fill-rule="evenodd"/>
      <g id="Group_5" data-name="Group 5" transform="translate(231.985 3.854)">
        <path id="Path_35" data-name="Path 35" d="M2932.452,368.579c.028.049.059.092.091.144-.036-.04-.055-.084-.091-.12Z" transform="translate(-2871.615 -322.767)" fill="#2d2d2d"/>
        <path id="Path_36" data-name="Path 36" d="M2932.409,368.355c0,.019,0,.039,0,.055a.039.039,0,0,1-.013-.016A.11.11,0,0,0,2932.409,368.355Z" transform="translate(-2871.576 -322.598)" fill="#2d2d2d"/>
        <path id="Path_37" data-name="Path 37" d="M2902.67,383.75c2.37-1.975,6.82-6.353,7.848-11.312a4.632,4.632,0,0,0-.458-3.272c2.563,2.822,1.783,7.857.612,11.73,5.732.892,14.68.322,17.431-1.584a8.628,8.628,0,0,1-1.976,3.96s2.031,2.954,1.838,4.785c0,0,15.732,13.692,10.876,31.033-.669-8.928-13.605-14.077-13.605-14.077s.916,5.572-1.026,8.375c-1.617-8.574-16.074-5.47-21.541-12.359l2.415-15.79A7,7,0,0,1,2902.67,383.75Z" transform="translate(-2849.133 -323.21)" fill="#2d2d2d"/>
        <path id="Path_38" data-name="Path 38" d="M2685.246,227.17a17.076,17.076,0,0,0,3.382,4.347l6.872-5.441,1.989-6.286a53,53,0,0,0-10.412,2.329,25.414,25.414,0,0,1,1.448-5.3l-2.244-3.1a43.512,43.512,0,0,1,2.683-11.209c-.781-7.411,9.019-17.486,18.62-20.84a4.58,4.58,0,0,0,.406,2.093c13.574-3.59,22.744.931,26.525.295a4.012,4.012,0,0,1-1.855,2.113c8.288,5.147,10.667,11.006,10.667,11.006a41.894,41.894,0,0,0-8.812-4.044c7.467,6.145,10.228,17.947,10.228,17.947a24.7,24.7,0,0,0-3.8-1.688,71.632,71.632,0,0,1,2.715,10.71,33.015,33.015,0,0,0-4.6-2.229,44.178,44.178,0,0,1,1.752,8.65,10.04,10.04,0,0,0-3.965,4.374c-.382-10.732-5.478-20.491-5.478-20.491a41.1,41.1,0,0,1,6.417,2.5s-3.209-17.1-15.206-21.206a28.978,28.978,0,0,0-20.251,1.067,46.975,46.975,0,0,0-4.771,14.9c1.588,1.532,2.987,3.124,2.987,3.124l-1.457,3.105a33.934,33.934,0,0,0,3.433,2.516l-3,10.679s5.229,3.2,7.391,6.325a46.046,46.046,0,0,0-7.374.525c-.241.994-.312,2.173-.7,3.32,6.286-2.126,10.38,3.224,13.715,3.287a7.287,7.287,0,0,1-3.5,2.079c-2.531.469-8.389-2.843-12.083,1.445-.032,0-.063.007-.087,0,2.253,2.97,8.875,2.269,11.679.932-1.02,3.884-6.521,5.413-8.774,5.222-3.048,1.787-3.192,6.751,3.327,7.141,4.927.294,12.156-.462,17.26-2.691a42.541,42.541,0,0,1-7.611,7.858c14.121-3.695,21.1-10.879,21.1-10.879-.293,7.964-5.476,38.74-5.476,38.74l-1.775-22.986c-4.944,4.725-14.9,10.532-14.9,10.532s6.639,4.45,12.6,5.911c-6.456,8.66-16.6,13.763-16.6,13.763s-4.125-9.433-7.795-25.569c-2.444,8.948-5.668,17.366-5.668,17.366s.917-6.548-.27-25.271c-2.508-4.537-4.076-9.648-5.5-14.026C2684.482,237.777,2683.12,233.534,2685.246,227.17Z" transform="translate(-2684.249 -181.676)" fill="#2d2d2d"/>
      </g>
      <path id="Path_39" data-name="Path 39" d="M2818.97,364.664s13.652-8.891,18.183-20.148a38.112,38.112,0,0,1,1.408,12.537,32.679,32.679,0,0,0,3.654-.295,44.938,44.938,0,0,1-14.123,12.323,44.233,44.233,0,0,0,2.5-6.623A50.828,50.828,0,0,1,2818.97,364.664Z" transform="translate(-2553.964 -300.748)" fill="#1e65a8"/>
      <path id="Path_40" data-name="Path 40" d="M1755.469,1014.876c5.708-.339,15.069-4.605,19.615-.506a17.343,17.343,0,0,1-6.138,8.319,5.787,5.787,0,0,1-4.713.828,13.641,13.641,0,0,0,3.8-7.022C1765.571,1015.621,1756.465,1019.887,1755.469,1014.876Z" transform="translate(-1751.138 -805.08)" fill="#fff"/>
      <g id="Group_6" data-name="Group 6" transform="translate(299.816 111.455)">
        <path id="Path_41" data-name="Path 41" d="M3172.628,1286.685a8.989,8.989,0,0,1-6.377,3.426l4.252-5.6Z" transform="translate(-3115.938 -1121.793)" fill="#2d2d2d" fill-rule="evenodd"/>
        <path id="Path_42" data-name="Path 42" d="M2961.626,620.668s8.349,21.606,19.28,26.883a36,36,0,0,1,3.821-13.708s4.33,16.558,18.557,25.391c-11.552,2.292,6.886,24.164,23.9,44a19.767,19.767,0,0,1,.009,7.555,40.6,40.6,0,0,0,8.613-2.56s-.931,20.379-11.974,37.025c0,0,1.49-12.665.678-15.742,0,0-1.007,3.121-2.7,7.483l0,0c-1.136,2.806-4.769,13.883-6.45,19.033l-3.629,3.153-.718,15.873-2.158,4.06,1.219,3.953-8.622,14.691a71.882,71.882,0,0,1-5.97-9.154l-.317-5.536c-1.649,2.606-4.706,7.638-9.578,5.791,0,0,4.49-9.807,7.547-18.469,3.141-8.892,14.1-15.538,19.244-23.284a99.625,99.625,0,0,0,7.088-34.159s-15.76-18.293-32.257-41.371C2987.209,671.568,2956.187,654.139,2961.626,620.668Z" transform="translate(-2960.986 -620.668)" fill="#2d2d2d" fill-rule="evenodd"/>
      </g>
      <path id="Path_43" data-name="Path 43" d="M2934.69,432.147c4.7,3.451,17.385,1.533,17.385,1.533a23.45,23.45,0,0,1-6.934,5.334s21.008.669,17.873,23.519c8.731-19.069-6.576-29.051-6.576-29.051s5.979-.606,8.461,1.185c-2.89-5.9-9.814-7.562-14.6-7.953C2944.751,432.147,2934.69,432.147,2934.69,432.147Z" transform="translate(-2641.32 -362.799)" fill="#fff"/>
      <path id="Path_44" data-name="Path 44" d="M2107.567,234.127a24.556,24.556,0,0,1-3.487-9.664,11.408,11.408,0,0,0,6.5-3.7c-5.157-8.063-1.7-19.459-5.849-31.169-.224-.642,1.775-1.222,2.793-3.96-3.5-.638-8.024-7.133-16.621-10.636a5.5,5.5,0,0,0-1.4-4.435,19.65,19.65,0,0,1-8.676-.461,5.937,5.937,0,0,0,.078-4.148c-3.884,4.609-28.816,1.708-35.622,20.1-1.663,4.5.024,9.318-1.5,16.2l2.993,6.6-2.484,8.593s3.614,21.557,6.631,28.9a29.05,29.05,0,0,0,3.226,5.644c.621,4.47-1.465,12.905-1.465,12.905-3.614,19.634,30.051,10.388,37.446-3.619a83.441,83.441,0,0,1-8.493,2.126,40.586,40.586,0,0,0,3.669-6.83,37,37,0,0,1-12.61-.7c6.622-3.821,11.971-11.654,11.971-11.654-10.7,5.54-23.078,8.028-22.774,3.419.238-3.61,5.835-3.228,6.519-9.285l3.456-.82c-.319-7.77-8.248-6.906-10.127-8.916,1.02-1.4,2.572-3.415,2.572-3.415a16.391,16.391,0,0,1-8.3-3.272l2.612-12.355s4.011,4.585,12.29,6.56a24.437,24.437,0,0,1-2.548-5.349,27.864,27.864,0,0,0,10.063-.829c-.048-6.921-5.923-7.9-13.31-8.656-3.565-8.028,1.146-17.963,1.146-17.963l2.1,2.866c5.708.369,20.739,3.757,23.8,11.311a19.33,19.33,0,0,0-5.6-1.185,59.117,59.117,0,0,1,1.362,21.119c4.243.49,5.349-5.58,5.349-5.58,9.846-4.075,7.386,11.885,1.273,17.386l2.037,3.567c-.8,8.1-1.273,14.075-1.273,14.075a9.678,9.678,0,0,0,4.841.76,51.962,51.962,0,0,1,.127-7A19.779,19.779,0,0,0,2107.567,234.127Z" transform="translate(-1968.774 -165.953)" fill="#2d2d2d" fill-rule="evenodd"/>
    </g>
  </g>
</svg>
